<svg width="276px" height="135px" viewBox="154.268 44.217 191.582 63.289" style="background: rgba(0, 0, 0, 0);" preserveAspectRatio="xMidYMid" xmlns="http://www.w3.org/2000/svg">
<defs>
  <filter id="editing-hover" x="-100%" y="-100%" width="300%" height="300%">
    <feFlood flood-color="#052b4a" result="flood"></feFlood>
    <feComposite operator="in" in2="SourceAlpha" in="flood" result="shadow"></feComposite>
    <feOffset dx="-1.3" dy="-1.9" in="SourceGraphic" result="offset-1"></feOffset>
    <feOffset dx="1.3" dy="1.9" in="shadow" result="offset-2"></feOffset>
    <feMerge>
      <feMergeNode in="offset-2"></feMergeNode>
      <feMergeNode in="offset-1"></feMergeNode>
    </feMerge>
  </filter>
</defs>
<g filter="url(#editing-hover)">
  <g transform="translate(156.98975324630737, 103.51703262329102)">
    <path d="M32.41-48.45L32.41-48.45L17.02-48.45L11.78-27.68L25.22-27.68L25.22-27.68Q25.91-27.68 26.16-27.15L26.16-27.15L26.16-27.15Q26.41-26.63 26.27-25.98L26.27-25.98L25.76-24.14L25.76-24.14Q25.40-22.58 23.52-22.58L23.52-22.58L10.44-22.58L5.09-1.63L5.09-1.63Q4.66 0 2.89 0L2.89 0L0.76 0L0.76 0Q-0.14 0-0.56-0.67L-0.56-0.67L-0.56-0.67Q-0.98-1.34-0.72-2.28L-0.72-2.28L11.02-48.45L8.13-48.45L8.13-48.45Q7.05-48.45 6.77-48.80L6.77-48.80L6.77-48.80Q6.50-49.14 6.83-50.41L6.83-50.41L7.26-52.10L7.26-52.10Q7.55-53.04 7.88-53.31L7.88-53.31L7.88-53.31Q8.20-53.58 9.25-53.58L9.25-53.58L33.39-53.58L33.39-53.58Q34.40-53.58 34.74-53.21L34.74-53.21L34.74-53.21Q35.08-52.83 34.80-51.74L34.80-51.74L34.25-49.86L34.25-49.86Q33.89-48.45 32.41-48.45ZM41.48-48.85L41.48-48.85L42.17-48.85L42.17-48.85Q43.40-48.85 44.44-47.73L44.44-47.73L44.44-47.73Q45.49-46.61 45.49-45.17L45.49-45.17L45.49-45.17Q45.49-43.72 44.41-42.69L44.41-42.69L44.41-42.69Q43.32-41.66 41.70-41.66L41.70-41.66L41.12-41.66L41.12-41.66Q39.85-41.66 38.86-42.73L38.86-42.73L38.86-42.73Q37.87-43.79 37.87-45.24L37.87-45.24L37.87-45.24Q37.87-46.68 38.90-47.77L38.90-47.77L38.90-47.77Q39.93-48.85 41.48-48.85ZM42.82-36.02L42.82-36.02L33.86-1.63L33.86-1.63Q33.42 0 31.65 0L31.65 0L29.48 0L29.48 0Q27.42 0 27.86-1.70L27.86-1.70L36.89-36.10L36.89-36.10Q37.25-37.58 38.95-37.58L38.95-37.58L41.41-37.58L41.41-37.58Q42.38-37.58 42.71-37.25L42.71-37.25L42.71-37.25Q43.03-36.93 42.82-36.02ZM61.35-54.45L61.35-54.45L47.88-1.63L47.88-1.63Q47.44 0 45.64 0L45.64 0L44.41 0L44.41 0Q41.66 0 42.24-2.38L42.24-2.38L55.79-54.52L55.79-54.52Q56.22-56.15 57.99-56.15L57.99-56.15L59.69-56.15L59.69-56.15Q61.79-56.15 61.35-54.45ZM61.61-10.23L61.61-10.23L61.61-10.23Q60.59-4.81 63.63-4.23L63.63-4.23L63.63-4.23Q66.34-5.24 70.35-9.76L70.35-9.76L70.35-9.76Q71.04-10.37 71.83-9.90L71.83-9.90L73.24-9.03L73.24-9.03Q74.22-8.27 73.89-7.41L73.89-7.41L73.89-7.41Q72.48-4.73 68.69-1.73L68.69-1.73L68.69-1.73Q64.89 1.26 62.58 0.83L62.58 0.83L62.58 0.83Q57.34-0.51 56.44-4.66L56.44-4.66L56.44-4.66Q55.39-10.23 58.28-19.95L58.28-19.95L58.28-19.95Q61.17-29.67 66.34-34.62L66.34-34.62L66.34-34.62Q68.15-36.28 70.84-37.09L70.84-37.09L70.84-37.09Q73.53-37.90 76.53-36.64L76.53-36.64L76.53-36.64Q79.53-35.37 79.49-29.41L79.49-29.41L79.49-29.41Q79.46-23.45 74.27-18.16L74.27-18.16L74.27-18.16Q69.09-12.86 61.61-10.23ZM62.51-15.03L62.51-15.03L62.51-15.03Q65.98-16.51 68.45-18.50L68.45-18.50L68.45-18.50Q70.93-20.49 72.54-23.34L72.54-23.34L72.54-23.34Q74.14-26.20 74.14-29.20L74.14-29.20L74.14-29.20Q74.14-32.19 72.41-32.19L72.41-32.19L72.41-32.19Q69.01-32.19 66.47-26.65L66.47-26.65L66.47-26.65Q63.92-21.10 62.51-15.03ZM90.87-53.58L94.13-53.58L94.13-53.58Q96.15-53.44 94.74-50.69L94.74-50.69L94.74-50.69Q91.63-44.99 89.09-31.71L89.09-31.71L89.09-31.71Q86.54-18.43 88.31-9.39L88.31-9.39L88.31-9.39Q93.91-15.54 98.84-26.38L98.84-26.38L98.84-26.38Q103.77-37.22 105.47-45.60L105.47-45.60L105.62-45.74L105.62-45.74Q106.27-49.00 107.03-51.67L107.03-51.67L107.03-51.67Q107.68-53.58 109.59-53.58L109.59-53.58L112.26-53.58L112.26-53.58Q114.04-53.58 113.24-51.34L113.24-51.34L113.24-51.34Q110.28-42.64 109.16-30.50L109.16-30.50L109.16-30.50Q108.04-18.36 110.35-8.60L110.35-8.60L110.35-8.60Q117.07-16.22 121.62-29.05L121.62-29.05L121.62-29.05Q126.18-41.88 126.65-51.81L126.65-51.81L126.65-51.81Q126.72-52.83 126.93-53.21L126.93-53.21L126.93-53.21Q127.15-53.58 128.09-53.58L128.09-53.58L131.05-53.58L131.05-53.58Q132.25-53.58 132.59-53.21L132.59-53.21L132.59-53.21Q132.93-52.83 132.86-51.74L132.86-51.74L132.86-51.74Q132.46-43.87 129.59-34.00L129.59-34.00L129.59-34.00Q126.72-24.14 121.08-14.44L121.08-14.44L121.08-14.44Q115.44-4.73 108.58 0L108.58 0L107.68 0L107.68 0Q106.34 0 105.83-1.48L105.83-1.48L105.83-1.48Q103.01-9.61 103.30-24.06L103.30-24.06L103.30-24.06Q100.67-17.67 96.08-11.06L96.08-11.06L96.08-11.06Q91.49-4.44 87.48 0L87.48 0L85.63 0L85.63 0Q84.30 0 83.79-1.48L83.79-1.48L83.79-1.48Q80.61-11.45 82.20-26.63L82.20-26.63L82.20-26.63Q83.79-41.81 88.89-52.54L88.89-52.54L88.89-52.54Q89.39-53.58 90.87-53.58L90.87-53.58ZM141.89-48.85L141.89-48.85L142.58-48.85L142.58-48.85Q143.81-48.85 144.86-47.73L144.86-47.73L144.86-47.73Q145.90-46.61 145.90-45.17L145.90-45.17L145.90-45.17Q145.90-43.72 144.82-42.69L144.82-42.69L144.82-42.69Q143.74-41.66 142.11-41.66L142.11-41.66L141.53-41.66L141.53-41.66Q140.27-41.66 139.27-42.73L139.27-42.73L139.27-42.73Q138.28-43.79 138.28-45.24L138.28-45.24L138.28-45.24Q138.28-46.68 139.31-47.77L139.31-47.77L139.31-47.77Q140.34-48.85 141.89-48.85ZM143.23-36.02L143.23-36.02L134.27-1.63L134.27-1.63Q133.84 0 132.07 0L132.07 0L129.90 0L129.90 0Q127.84 0 128.27-1.70L128.27-1.70L137.30-36.10L137.30-36.10Q137.67-37.58 139.36-37.58L139.36-37.58L141.82-37.58L141.82-37.58Q142.80-37.58 143.12-37.25L143.12-37.25L143.12-37.25Q143.45-36.93 143.23-36.02ZM157.86-36.02L155.73-27.68L155.73-27.68Q158.08-31.51 160.09-34.04L160.09-34.04L160.09-34.04Q162.09-36.57 163.01-37.20L163.01-37.20L163.01-37.20Q163.93-37.83 166.25-37.83L166.25-37.83L166.97-37.83L166.97-37.83Q169.14-37.83 168.45-36.17L168.45-36.17L168.45-36.17Q168.09-35.30 166.64-34.00L166.64-34.00L166.64-34.00Q165.20-32.70 162.72-29.56L162.72-29.56L162.72-29.56Q160.25-26.41 160.25-25.47L160.25-25.47L160.25-25.47Q160.25-23.52 162.09-21.82L162.09-21.82L162.09-21.82Q162.53-21.46 162.34-21.05L162.34-21.05L162.34-21.05Q162.16-20.63 161.59-20.49L161.59-20.49L158.77-19.98L158.77-19.98Q157.58-19.76 156.94-20.23L156.94-20.23L156.94-20.23Q156.31-20.70 154.76-23.59L154.76-23.59L149.08-1.63L149.08-1.63Q148.61 0 146.84 0L146.84 0L144.71 0L144.71 0Q142.62 0 143.09-1.70L143.09-1.70L152.12-36.10L152.12-36.10Q152.48-37.58 154.18-37.58L154.18-37.58L156.46-37.58L156.46-37.58Q157.43-37.58 157.76-37.25L157.76-37.25L157.76-37.25Q158.08-36.93 157.86-36.02L157.86-36.02ZM168.85-10.23L168.85-10.23L168.85-10.23Q167.84-4.81 170.87-4.23L170.87-4.23L170.87-4.23Q173.58-5.24 177.59-9.76L177.59-9.76L177.59-9.76Q178.28-10.37 179.07-9.90L179.07-9.90L180.48-9.03L180.48-9.03Q181.46-8.27 181.13-7.41L181.13-7.41L181.13-7.41Q179.72-4.73 175.93-1.73L175.93-1.73L175.93-1.73Q172.14 1.26 169.82 0.83L169.82 0.83L169.82 0.83Q164.58-0.51 163.68-4.66L163.68-4.66L163.68-4.66Q162.63-10.23 165.52-19.95L165.52-19.95L165.52-19.95Q168.42-29.67 173.58-34.62L173.58-34.62L173.58-34.62Q175.39-36.28 178.08-37.09L178.08-37.09L178.08-37.09Q180.77-37.90 183.77-36.64L183.77-36.64L183.77-36.64Q186.77-35.37 186.73-29.41L186.73-29.41L186.73-29.41Q186.70-23.45 181.51-18.16L181.51-18.16L181.51-18.16Q176.33-12.86 168.85-10.23ZM169.75-15.03L169.75-15.03L169.75-15.03Q173.22-16.51 175.70-18.50L175.70-18.50L175.70-18.50Q178.17-20.49 179.78-23.34L179.78-23.34L179.78-23.34Q181.39-26.20 181.39-29.20L181.39-29.20L181.39-29.20Q181.39-32.19 179.65-32.19L179.65-32.19L179.65-32.19Q176.26-32.19 173.71-26.65L173.71-26.65L173.71-26.65Q171.16-21.10 169.75-15.03Z" fill="#ffd5af"></path>
  </g>
</g>
<style>text {
  font-size: 64px;
  font-family: Arial Black;
  dominant-baseline: central;
  text-anchor: middle;
  }</style>
</svg>